<?xml version="1.0" encoding="UTF-8" standalone="no"?>
<svg
   viewBox="0 0 32 32"
   version="1.1"
   id="svg3"
   sodipodi:docname="profile.svg"
   inkscape:version="1.4 (86a8ad7, 2024-10-11)"
   xmlns:inkscape="http://www.inkscape.org/namespaces/inkscape"
   xmlns:sodipodi="http://sodipodi.sourceforge.net/DTD/sodipodi-0.dtd"
   xmlns="http://www.w3.org/2000/svg"
   xmlns:svg="http://www.w3.org/2000/svg">
  <sodipodi:namedview
     id="namedview3"
     pagecolor="#505050"
     bordercolor="#eeeeee"
     borderopacity="1"
     inkscape:showpageshadow="0"
     inkscape:pageopacity="0"
     inkscape:pagecheckerboard="0"
     inkscape:deskcolor="#505050"
     inkscape:zoom="25.7873"
     inkscape:cx="8.6282781"
     inkscape:cy="15.181892"
     inkscape:window-width="2560"
     inkscape:window-height="1369"
     inkscape:window-x="-8"
     inkscape:window-y="-8"
     inkscape:window-maximized="1"
     inkscape:current-layer="svg3" />
  <defs
     id="defs1">
    <style
       id="style1">.cls-1{fill:none;}</style>
  </defs>
  <title
     id="title1" />
  <g
     data-name="Layer 2"
     id="Layer_2"
     style="fill:#207368;fill-opacity:1"
     transform="matrix(4.9230769,0,0,4.9230769,-11.769231,-11.769231)"
     inkscape:export-filename="profile.png"
     inkscape:export-xdpi="96"
     inkscape:export-ydpi="96">
    <path
       d="M 16,29 A 13,13 0 1 1 29,16 13,13 0 0 1 16,29 Z M 16,5 A 11,11 0 1 0 27,16 11,11 0 0 0 16,5 Z"
       id="path1"
       style="fill:#207368;fill-opacity:1" />
    <path
       d="m 16,17 a 5,5 0 1 1 5,-5 5,5 0 0 1 -5,5 z m 0,-8 a 3,3 0 1 0 3,3 3,3 0 0 0 -3,-3 z"
       id="path2"
       style="fill:#207368;fill-opacity:1" />
    <path
       d="M 25.55,24 A 1,1 0 0 1 24.81,23.68 11.35,11.35 0 0 0 16.46,20 H 15.54 A 11.27,11.27 0 0 0 7.69,23.16 1,1 0 0 1 6.31,21.72 13.24,13.24 0 0 1 15.54,18 h 0.92 a 13.39,13.39 0 0 1 9.82,4.32 1,1 0 0 1 -0.73,1.68 z"
       id="path3"
       style="fill:#207368;fill-opacity:1" />
  </g>
  <g
     id="frame">
    <rect
       class="cls-1"
       height="32"
       width="32"
       id="rect3" />
  </g>
</svg>
